<svg width="1397" height="579" viewBox="0 0 1397 579" fill="none" xmlns="http://www.w3.org/2000/svg">
<path d="M223.047 40.8302C224.822 38.7149 227.976 38.4389 230.091 40.2139L253.073 59.4976C255.188 61.2726 255.464 64.4264 253.689 66.5417L30.6418 332.359L3.8147e-06 306.648L223.047 40.8302Z" fill="#8EBAFB"/>
<path d="M253.689 546.817C255.464 548.933 255.188 552.087 253.073 553.862L230.092 573.145C227.976 574.92 224.822 574.644 223.047 572.529L5.0565e-05 306.712L30.6418 281L253.689 546.817Z" fill="#8EBAFB"/>
<path d="M1173.95 574.529C1172.18 576.644 1169.02 576.92 1166.91 575.145L1143.93 555.862C1141.81 554.087 1141.54 550.933 1143.31 548.817L1366.36 283L1397 308.711L1173.95 574.529Z" fill="#8EBAFB"/>
<path d="M1143.31 68.5417C1141.54 66.4263 1141.81 63.2725 1143.93 61.4975L1166.91 42.2139C1169.02 40.4388 1172.18 40.7148 1173.95 42.8301L1397 308.648L1366.36 334.359L1143.31 68.5417Z" fill="#8EBAFB"/>
<path d="M324.4 464H396V365.2H430.8C494 365.2 548.4 334 548.4 263.2C548.4 189.6 494.4 166 429.2 166H324.4V464ZM396 308.8V222.8H425.2C459.6 222.8 478.8 233.2 478.8 263.2C478.8 292.4 462 308.8 427.2 308.8H396ZM599.009 464H670.609V359.2H708.209C771.809 359.2 824.609 330 824.609 260C824.609 188 771.809 166 708.209 166H599.009V464ZM670.609 302.8V222.8H702.609C736.609 222.8 755.009 232 755.009 260C755.009 288 736.609 302.8 702.609 302.8H670.609ZM759.809 464H839.809L743.809 294L695.409 340.8L759.809 464ZM882.213 464H1075.41V404H953.813V340.8H1053.41V280.8H953.813V225.6H1071.01V166H882.213V464Z" fill="#545454"/>
</svg>
